<svg xmlns="http://www.w3.org/2000/svg" xmlns:xlink="http://www.w3.org/1999/xlink" width="500" zoomAndPan="magnify" viewBox="0 0 375 374.999991" height="500" preserveAspectRatio="xMidYMid meet" version="1.0"><defs><clipPath id="id1"><path d="M 92.578125 156 L 282.328125 156 L 282.328125 248 L 92.578125 248 Z M 92.578125 156 " clip-rule="nonzero"/></clipPath></defs><path fill="#c4c4c4" d="M 118.75 336.101562 L 118.75 241.179688 C 118.75 230.332031 127.539062 221.539062 138.378906 221.539062 L 167.824219 221.539062 C 178.664062 221.539062 187.453125 230.332031 187.453125 241.179688 L 187.453125 355.742188 L 138.378906 355.742188 C 127.539062 355.742188 118.75 346.949219 118.75 336.101562 Z M 118.75 336.101562 " fill-opacity="1" fill-rule="nonzero"/><path fill="#d6d6d6" d="M 256.15625 336.101562 L 256.15625 241.179688 C 256.15625 230.332031 247.367188 221.539062 236.527344 221.539062 L 207.082031 221.539062 C 196.242188 221.539062 187.453125 230.332031 187.453125 241.179688 L 187.453125 355.742188 L 236.527344 355.742188 C 247.367188 355.742188 256.15625 346.949219 256.15625 336.101562 Z M 256.15625 336.101562 " fill-opacity="1" fill-rule="nonzero"/><g clip-path="url(#id1)"><path fill="#393939" d="M 92.578125 175.714844 C 92.578125 164.871094 101.367188 156.078125 112.207031 156.078125 L 262.699219 156.078125 C 273.539062 156.078125 282.328125 164.871094 282.328125 175.714844 L 282.328125 228.085938 C 282.328125 238.933594 273.539062 247.726562 262.699219 247.726562 L 112.207031 247.726562 C 101.367188 247.726562 92.578125 238.933594 92.578125 228.085938 Z M 92.578125 175.714844 " fill-opacity="1" fill-rule="nonzero"/></g><path fill="#34709d" d="M 213.625 306.644531 C 210.011719 306.644531 207.082031 303.710938 207.082031 300.097656 L 207.082031 287.003906 C 207.082031 283.390625 210.011719 280.457031 213.625 280.457031 L 226.710938 280.457031 C 230.324219 280.457031 233.253906 283.390625 233.253906 287.003906 L 233.253906 300.097656 C 233.253906 303.710938 230.324219 306.644531 226.710938 306.644531 Z M 213.625 306.644531 " fill-opacity="1" fill-rule="evenodd"/><path fill="#34709d" d="M 148.195312 306.644531 C 144.582031 306.644531 141.652344 303.710938 141.652344 300.097656 L 141.652344 287.003906 C 141.652344 283.390625 144.582031 280.457031 148.195312 280.457031 L 161.28125 280.457031 C 164.894531 280.457031 167.824219 283.390625 167.824219 287.003906 L 167.824219 300.097656 C 167.824219 303.710938 164.894531 306.644531 161.28125 306.644531 Z M 148.195312 306.644531 " fill-opacity="1" fill-rule="evenodd"/><path fill="#34709d" d="M 134.800781 74.394531 C 161.171875 48.015625 203.921875 48.015625 230.289062 74.394531 C 235.402344 79.507812 243.6875 79.507812 248.796875 74.394531 C 253.90625 69.28125 253.90625 60.992188 248.796875 55.878906 C 212.207031 19.273438 152.886719 19.273438 116.296875 55.878906 C 111.183594 60.992188 111.183594 69.28125 116.296875 74.394531 C 121.40625 79.507812 129.691406 79.507812 134.800781 74.394531 Z M 134.800781 74.394531 " fill-opacity="1" fill-rule="nonzero"/><path fill="#34709d" d="M 165.628906 105.234375 C 174.972656 95.886719 190.121094 95.886719 199.464844 105.234375 C 204.574219 110.347656 212.863281 110.347656 217.972656 105.234375 C 223.082031 100.125 223.082031 91.832031 217.972656 86.71875 C 198.40625 67.144531 166.6875 67.144531 147.121094 86.71875 C 142.011719 91.832031 142.011719 100.125 147.121094 105.234375 C 152.230469 110.347656 160.515625 110.347656 165.628906 105.234375 Z M 165.628906 105.234375 " fill-opacity="1" fill-rule="nonzero"/><path fill="#34709d" d="M 184.179688 140.242188 C 191.410156 140.242188 197.269531 134.378906 197.269531 127.148438 C 197.269531 119.917969 191.410156 114.054688 184.179688 114.054688 C 176.953125 114.054688 171.09375 119.917969 171.09375 127.148438 C 171.09375 134.378906 176.953125 140.242188 184.179688 140.242188 Z M 184.179688 140.242188 " fill-opacity="1" fill-rule="nonzero"/></svg>