<svg xmlns="http://www.w3.org/2000/svg" xmlns:xlink="http://www.w3.org/1999/xlink" width="500" zoomAndPan="magnify" viewBox="0 0 375 374.999991" height="500" preserveAspectRatio="xMidYMid meet" version="1.0"><defs><clipPath id="id1"><path d="M 0 31.875 L 375 31.875 L 375 375 L 0 375 Z M 0 31.875 " clip-rule="nonzero"/></clipPath></defs><g clip-path="url(#id1)"><path fill="#34709d" d="M 31.582031 70.914062 C 31.582031 66.570312 35.101562 63.121094 39.367188 63.121094 L 54.9375 63.121094 C 59.277344 63.121094 62.71875 66.644531 62.71875 70.914062 C 62.71875 75.1875 59.203125 78.710938 54.9375 78.710938 L 39.367188 78.710938 C 35.023438 78.710938 31.582031 75.1875 31.582031 70.914062 Z M 86.148438 78.710938 L 101.71875 78.710938 C 106.058594 78.710938 109.503906 75.1875 109.503906 70.914062 C 109.503906 66.644531 105.984375 63.121094 101.71875 63.121094 L 86.148438 63.121094 C 81.808594 63.121094 78.363281 66.644531 78.363281 70.914062 C 78.363281 75.1875 81.808594 78.710938 86.148438 78.710938 Z M 132.933594 78.710938 L 148.5 78.710938 C 152.84375 78.710938 156.285156 75.1875 156.285156 70.914062 C 156.285156 66.644531 152.769531 63.121094 148.5 63.121094 L 132.933594 63.121094 C 128.589844 63.121094 125.148438 66.644531 125.148438 70.914062 C 125.148438 75.1875 128.589844 78.710938 132.933594 78.710938 Z M 190.492188 219.8125 L 330.84375 278.710938 C 333.761719 279.910156 335.632812 282.832031 335.632812 286.054688 C 335.632812 289.273438 333.613281 292.046875 330.617188 293.246094 L 275.003906 314.679688 L 253.59375 370.355469 C 252.472656 373.351562 249.628906 375.300781 246.410156 375.375 C 246.335938 375.375 246.335938 375.375 246.257812 375.375 C 243.117188 375.375 240.269531 373.5 239.074219 370.578125 L 180.238281 230.078125 C 179.042969 227.15625 179.640625 223.78125 181.886719 221.535156 C 184.207031 219.285156 187.574219 218.613281 190.492188 219.8125 Z M 202.019531 241.617188 L 246.035156 346.601562 L 261.679688 305.835938 C 262.503906 303.738281 264.074219 302.164062 266.171875 301.339844 L 306.890625 285.679688 Z M 234.28125 145.925781 C 230.539062 143.753906 225.824219 145.027344 223.652344 148.773438 L 208.085938 175.824219 C 205.914062 179.570312 207.1875 184.367188 210.929688 186.464844 C 212.125 187.140625 213.472656 187.515625 214.820312 187.515625 C 217.515625 187.515625 220.136719 186.089844 221.558594 183.617188 L 237.128906 156.566406 C 239.296875 152.820312 238.027344 148.023438 234.28125 145.925781 Z M 113.246094 277.734375 C 114.59375 277.734375 115.941406 277.433594 117.136719 276.6875 L 144.160156 261.101562 C 147.902344 258.925781 149.175781 254.207031 147.003906 250.460938 C 144.832031 246.710938 140.042969 245.4375 136.375 247.613281 L 109.355469 263.199219 C 105.609375 265.371094 104.339844 270.09375 106.507812 273.839844 C 107.929688 276.386719 110.550781 277.734375 113.246094 277.734375 Z M 257.863281 177.324219 L 230.839844 192.910156 C 227.097656 195.082031 225.824219 199.804688 227.996094 203.550781 C 229.417969 206.023438 232.039062 207.445312 234.730469 207.445312 C 236.078125 207.445312 237.425781 207.148438 238.625 206.398438 L 265.644531 190.8125 C 269.390625 188.636719 270.660156 183.917969 268.492188 180.171875 C 266.394531 176.421875 261.605469 175.148438 257.863281 177.324219 Z M 93.933594 227.003906 C 93.933594 231.351562 97.453125 234.796875 101.71875 234.796875 L 132.933594 234.796875 C 137.273438 234.796875 140.71875 231.277344 140.71875 227.003906 C 140.71875 222.660156 137.199219 219.210938 132.933594 219.210938 L 101.71875 219.210938 C 97.453125 219.210938 93.933594 222.734375 93.933594 227.003906 Z M 234.28125 227.003906 C 234.28125 231.351562 237.800781 234.796875 242.066406 234.796875 L 273.28125 234.796875 C 277.621094 234.796875 281.066406 231.277344 281.066406 227.003906 C 281.066406 222.660156 277.546875 219.210938 273.28125 219.210938 L 242.066406 219.210938 C 237.800781 219.210938 234.28125 222.734375 234.28125 227.003906 Z M 106.433594 180.171875 C 104.265625 183.917969 105.535156 188.714844 109.277344 190.8125 L 136.300781 206.398438 C 137.5 207.070312 138.847656 207.445312 140.191406 207.445312 C 142.886719 207.445312 145.507812 206.023438 146.929688 203.550781 C 149.101562 199.804688 147.828125 195.007812 144.085938 192.910156 L 117.136719 177.324219 C 113.394531 175.148438 108.605469 176.421875 106.433594 180.171875 Z M 160.253906 187.515625 C 161.601562 187.515625 162.949219 187.214844 164.144531 186.464844 C 167.886719 184.292969 169.160156 179.570312 166.992188 175.824219 L 151.347656 148.773438 C 149.175781 145.027344 144.386719 143.753906 140.71875 145.925781 C 136.972656 148.097656 135.703125 152.820312 137.871094 156.566406 L 153.441406 183.617188 C 154.9375 186.089844 157.558594 187.515625 160.253906 187.515625 Z M 187.5 133.335938 C 183.160156 133.335938 179.714844 136.859375 179.714844 141.128906 L 179.714844 172.378906 C 179.714844 176.722656 183.234375 180.171875 187.5 180.171875 C 191.765625 180.171875 195.285156 176.648438 195.285156 172.378906 L 195.285156 141.128906 C 195.285156 136.859375 191.839844 133.335938 187.5 133.335938 Z M 140.71875 308.160156 C 141.914062 308.832031 143.261719 309.207031 144.609375 309.207031 C 147.304688 309.207031 149.925781 307.785156 151.347656 305.3125 L 166.914062 278.261719 C 169.085938 274.511719 167.8125 269.71875 164.070312 267.617188 C 160.328125 265.445312 155.539062 266.71875 153.441406 270.464844 L 137.871094 297.519531 C 135.703125 301.191406 136.972656 305.984375 140.71875 308.160156 Z M 179.714844 312.878906 C 179.714844 317.226562 183.234375 320.671875 187.5 320.671875 C 191.765625 320.671875 195.285156 317.152344 195.285156 312.878906 L 195.285156 281.632812 C 195.285156 277.285156 191.765625 273.839844 187.5 273.839844 C 183.234375 273.839844 179.714844 277.359375 179.714844 281.632812 Z M 374.632812 47.011719 L 374.632812 297.742188 C 374.632812 306.058594 367.820312 312.878906 359.511719 312.878906 L 323.058594 312.878906 L 336.230469 307.785156 C 341.546875 305.761719 345.664062 301.9375 348.285156 297.292969 L 359.0625 297.292969 L 359.0625 109.957031 L 15.5625 109.957031 L 15.9375 297.816406 L 121.554688 297.667969 C 121.03125 300.890625 121.105469 304.261719 122.003906 307.484375 C 122.527344 309.433594 123.351562 311.230469 124.324219 312.953125 L 15.488281 312.953125 C 7.179688 312.878906 0.367188 306.058594 0.367188 297.742188 L 0.367188 47.011719 C 0.367188 38.695312 7.179688 31.875 15.488281 31.875 L 359.511719 31.875 C 367.820312 31.875 374.632812 38.695312 374.632812 47.011719 Z M 359.0625 47.011719 L 15.488281 47.535156 L 15.5625 94.371094 L 359.0625 94.371094 Z M 359.0625 47.011719 " fill-opacity="1" fill-rule="nonzero"/></g></svg>